<?xml version="1.0" standalone="no"?>
<!DOCTYPE svg PUBLIC "-//W3C//DTD SVG 20010904//EN"
 "http://www.w3.org/TR/2001/REC-SVG-20010904/DTD/svg10.dtd">
<svg version="1.0" xmlns="http://www.w3.org/2000/svg"
 width="300.000000pt" height="300.000000pt" viewBox="0 0 300.000000 300.000000"
 preserveAspectRatio="xMidYMid meet">
<metadata>
Created by potrace 1.14, written by Peter Selinger 2001-2017
</metadata>
<g transform="translate(0.000000,300.000000) scale(0.100000,-0.100000)"
fill="#000000" stroke="none">
<path d="M805 2970 c-362 -56 -650 -304 -735 -635 -44 -167 -35 -371 22 -511
84 -208 246 -355 706 -639 165 -102 262 -186 300 -259 23 -44 26 -63 27 -141
0 -82 -3 -96 -33 -157 -59 -121 -148 -170 -316 -176 -178 -7 -284 36 -336 137
-24 48 -47 171 -55 296 -7 118 -22 175 -44 175 -9 0 -73 -5 -142 -11 l-126
-12 -7 -136 c-8 -156 -33 -456 -46 -550 -15 -106 14 -142 163 -209 178 -79
249 -94 456 -100 202 -5 286 4 416 45 215 68 385 198 494 377 129 214 149 549
46 774 -78 169 -226 304 -550 502 -223 136 -318 201 -377 260 -76 77 -100 131
-100 227 0 199 165 336 386 320 152 -11 227 -56 262 -159 15 -42 19 -84 19
-197 l1 -143 28 -25 c18 -15 37 -23 50 -20 12 3 62 9 111 12 50 4 97 11 106
16 13 6 18 33 23 121 8 127 27 287 57 491 l20 138 -23 42 c-22 40 -27 43 -133
79 -60 20 -144 44 -185 53 -89 19 -396 28 -485 15z"/>
<path d="M2745 2944 c-88 -6 -298 -13 -467 -13 l-307 -1 -5 -32 c-3 -18 -10
-76 -16 -128 -10 -86 -9 -96 8 -120 17 -23 27 -25 110 -30 103 -6 118 -14 132
-76 14 -58 13 -1886 -1 -1959 -21 -117 -74 -173 -195 -212 -61 -19 -59 -14
-70 -190 -6 -98 -5 -113 9 -113 8 0 17 -5 19 -11 3 -8 28 -8 93 0 200 25 359
31 621 25 179 -5 273 -4 277 3 4 6 13 64 21 131 14 109 14 123 -1 152 l-16 33
-84 -7 c-166 -14 -183 7 -190 239 -9 246 27 1586 47 1777 5 48 17 104 26 123
19 40 79 80 137 90 21 4 44 13 51 21 16 16 31 212 21 273 -6 37 -10 41 -33 40
-15 -1 -99 -8 -187 -15z"/>
</g>
</svg>
