<?xml version="1.0" encoding="utf-8"?>
<!-- Generator: Adobe Illustrator 25.4.1, SVG Export Plug-In . SVG Version: 6.00 Build 0)  -->
<svg version="1.0" id="Layer_1" xmlns="http://www.w3.org/2000/svg" xmlns:xlink="http://www.w3.org/1999/xlink" x="0px" y="0px"
	 viewBox="0 0 1173.1 899.2" style="enable-background:new 0 0 1173.1 899.2;" xml:space="preserve">
<style type="text/css">
	.st0{fill:#201A1B;}
	.st1{fill:#010101;}
</style>
<path class="st0" d="M312.7,171.6v92.1c0.6,21.6,18.6,38.6,40.2,38c20.8-0.6,37.5-17.3,38-38v-92.1c0-21.3-17.3-38.6-38.6-38.6h0
	h-0.1c-21.4-0.4-39.1,16.7-39.5,38.1V171.6 M340.7,263.7v-92.1c-0.1-5.8,4.6-10.7,10.4-10.7c0,0,0,0,0,0c0.4,0,0.7,0,1.1,0l0,0
	c5.7-0.1,10.5,4.4,10.6,10.2c0,0.2,0,0.4,0,0.5v92.1c-0.1,5.9-4.8,10.6-10.7,10.7c-6.1,0.3-11.3-4.5-11.6-10.6v0"/>
<polygon class="st0" points="616.6,134.6 537.5,134.6 537.5,162.6 563.1,162.6 563.1,299.9 591.1,299.9 591.1,162.6 616.6,162.6 "/>
<path class="st0" d="M699,134.6v129.1c0.2,6-4.5,10.9-10.5,11.1c-6,0.2-10.9-4.5-11.1-10.5c0-0.2,0-0.4,0-0.7V134.6h-28.8v129.1
	c1,21.8,19.5,38.7,41.3,37.7c20.4-0.9,36.8-17.3,37.7-37.7V134.6H699z"/>
<polygon class="st0" points="955.1,162.6 955.1,134.6 885.9,134.6 885.9,299.9 955.1,299.9 955.1,272 913.9,272 913.9,229.2 
	940.2,229.2 940.2,201.2 913.9,201.2 913.9,162.6 "/>
<path class="st0" d="M511.2,299.9h-29.6l-20.6-78.1c0,0,18.1-3.3,18.1-22.2v-25.5c0.2-6.2-4.8-11.4-11-11.5c0,0,0,0,0,0h-11.2v137.3
	h-28V134.6h38.8c21.2-0.2,38.7,16.6,39.5,37.8l0,0v26.3l0,0c0,16.4-5.8,27.9-15.6,36.2L511.2,299.9z"/>
<polygon class="st0" points="823.3,134.6 823.3,225.1 794.5,134.6 765.7,134.6 765.7,299.9 794.5,299.9 794.5,219.3 820.8,299.9 
	852.1,299.9 852.1,134.6 "/>
<polygon class="st0" points="247.6,137.1 220.5,137.1 218,137.1 218,302.4 247.6,302.4 247.6,231.6 274.8,231.6 274.8,203.7 
	247.6,203.7 247.6,165.1 290.5,165.1 290.5,137.1 "/>
<path class="st1" d="M880,680.1c-0.2,8.4-7,15-15.4,14.9h-46.1c-8.4,0.1-15.2-6.5-15.4-14.9V430.1c0.4-8.4,7.3-15,15.7-14.9h46.2
	c8.2-0.1,14.9,6.4,15,14.6c0,0,0,0,0,0c0,0.1,0,0.2,0,0.3L880,680.1z M875.7,341.4h-67.8c-43.8,0-79.3,34.3-79.3,76.7v271.4
	c0,42.3,35.5,76.7,79.4,76.7h67.8c43.8,0,79.4-34.3,79.4-76.7V418.1C955.1,375.7,919.5,341.4,875.7,341.4L875.7,341.4z M625.2,680.1
	c-0.2,8.4-7.1,15-15.4,14.9h-46c-8.4,0.1-15.2-6.5-15.4-14.9V430.1c0.4-8.4,7.4-15.1,15.8-14.9h46c8.2-0.1,14.9,6.5,15,14.7
	c0,0,0,0,0,0v0.2L625.2,680.1z M620.8,341.4H553c-43.8,0-79.2,34.3-79.2,76.7v271.4c0,42.3,35.6,76.7,79.4,76.7h67.8
	c43.8,0,79.4-34.3,79.4-76.7V418.1c0-42.3-35.5-76.7-79.4-76.7L620.8,341.4z M445.4,571.8c0-42.4-36.2-76.6-80.9-76.6h-68.4V415
	h148.8v-73.6H218.8V572h134.3c8.5-0.3,15.6,6.4,15.9,14.9c0,0,0,0,0,0l0,0v93.2c-0.3,8.4-7.3,15.1-15.8,14.9h-41.4
	c-8.4,0.2-15.5-6.5-15.7-14.9v-58.5h-76v67.8c0,42.3,36.3,76.7,80.9,76.7h63.6c44.6,0,80.9-34.3,80.9-76.7L445.4,571.8z"/>
</svg>
